<?xml version="1.0" encoding="utf-8"?>
<!-- Generator: Adobe Illustrator 19.0.0, SVG Export Plug-In . SVG Version: 6.00 Build 0)  -->
<svg version="1.1" id="Layer_1" xmlns="http://www.w3.org/2000/svg" xmlns:xlink="http://www.w3.org/1999/xlink" x="0px" y="0px"
	 viewBox="-172.9 -130 355.4 104.8" style="enable-background:new -172.9 -130 355.4 104.8;" xml:space="preserve">
<style type="text/css">
	.st0{fill:#826550;}
</style>
<path class="st0" d="M-122-130c-0.1,0-0.2,0-0.2,0c-2.3,7.7-2.9,17.1-9.4,20.6c-1.2-3.4-4.1-4.9-7.4-6.4c-2.1-0.9-4.5-2.6-6.6-2.6
	c-0.5,0-1,0-1.5,0.3c-0.5-0.3-1-0.3-1.5-0.3c-2.1,0.1-4.5,1.7-6.6,2.6c-3.3,1.5-6.3,3-7.4,6.4c-6.4-3.6-7.1-12.9-9.4-20.6
	c-0.1,0-0.2,0-0.2,0c-0.3,0.7-0.4,1.6-0.6,2.4c0,1.9,0.5,21.5,1.9,28.4c1.2,6.3,6.1,10.8,10.8,13.8c3.3,2.1,8.5,4.8,13,4.8
	c4.5,0,9.7-2.8,13-4.8c4.7-3,9.6-7.5,10.8-13.8c1.4-7,1.9-26.5,1.9-28.4C-121.6-128.4-121.7-129.3-122-130z M-135.9-101.9
	c-0.2,1.6-1.7,3.4-3.4,3.5c-3,0.2-4.5-4.4-7.9-4.4c-3.4,0-4.9,4.5-7.9,4.4c-1.7-0.1-3.1-1.9-3.4-3.5c-0.3-1.9,0.6-4.6,1.7-5.6
	c1.1-1.1,2.8-0.9,4.7-1.2c2-0.3,3.8-0.9,4.9-1.9c0,0,0,0,0,0c1.1,1.1,2.8,1.7,4.9,1.9c1.9,0.3,3.6,0.1,4.7,1.2
	C-136.6-106.6-135.6-103.9-135.9-101.9z"/>
<path class="st0" d="M-47.6-107.8c0.1-1.7,0.5-3.5,0.7-5.4c0.7-5.4,1.6-11.7-0.1-16.8c-0.1,0-0.2,0-0.2,0c-1.3,3.7-1.3,8.3-2.2,12.4
	c-0.7,3-1.8,5.7-3.2,7.6c-0.5,0.7-1.1,1.5-1.9,1.8c-0.7-3.9-4.3-4.9-7.7-6.4c-2.1-0.9-4-2-6.1-2.2c-0.8-0.1-1.5,0.2-2,0.2
	c-0.5,0-1.2-0.3-2-0.2c-2.1,0.1-4,1.3-6.1,2.2c-3.4,1.4-7,2.4-7.7,6.4c-0.9-0.3-1.4-1.1-1.9-1.8c-1.5-1.9-2.6-4.6-3.2-7.6
	c-0.9-4-0.8-8.6-2.2-12.4c-0.1,0-0.2,0-0.2,0c-1.7,5.1-0.8,11.4-0.1,16.8c0.2,1.9,0.6,3.7,0.7,5.4c0.8,11.1-7,23.1-6,28.9
	c0.9,7.5,8.4,9.4,14.2,12.4c4.3,2.2,8.3,5,13.3,5.2c0.4,0,0.9,0,1.3,0c0,0,0,0,0,0c0.4,0,0.9,0,1.3,0c5-0.2,9-2.9,13.3-5.2
	c5.8-3,13.2-4.8,14.2-12.4C-40.6-84.7-48.4-96.7-47.6-107.8z M-70.3-104.1L-70.3-104.1L-70.3-104.1L-70.3-104.1L-70.3-104.1
	c-2.5,0-5.1-0.1-7.2-0.5c0.7-2.1,4-1.6,7.1-1.6c0,0,0.1,0,0.1,0c0,0,0.1,0,0.1,0c3,0,6.4-0.5,7.1,1.6
	C-65.3-104.1-67.8-104-70.3-104.1z"/>
<path class="st0" d="M37.7-88c0-5.2-2.4-7.8-3.6-10c-0.9-1.6-4-10.8-4.2-17.6c-0.1-4.9-1.7-12.4-2.9-14.4c-0.9,0-1.5,7.8-2.3,11.6
	c-1.4,7-3.8,8.9-4.4,9c-0.8-2.8-4.1-7.4-13.7-7.7c0,0-0.1,0-0.1,0c0,0-0.1,0-0.1,0c-9.6,0.4-12.9,4.9-13.7,7.7c-0.7-0.1-3-2-4.4-9
	c-0.8-3.9-1.4-11.6-2.3-11.6c-1.2,2-2.8,9.5-2.9,14.4c-0.2,6.9-3.3,16-4.2,17.6c-1.2,2.2-3.6,4.7-3.6,10c0,3.7,5.2,7.2,5.6,11.4
	c0.1,1.2,0,2.3,0.1,3.4c2,17.5,17.9,21.7,25.4,21.7l0,0l0,0c7.6,0,23.4-4.2,25.4-21.7c0.2-1,0-2.1,0.1-3.4
	C32.5-80.8,37.7-84.3,37.7-88z M8.5-103.2c-0.7-0.1-3.4-0.1-4.1,0c-1.7,0.3-5.8,1-5.8-1.1c0-1.1,6.7-2.3,7.8-2.3
	c1.1,0,7.8,1.2,7.8,2.3C14.3-102.3,10.3-102.9,8.5-103.2z"/>
<path class="st0" d="M105.9-114.8c-0.4-5.5-0.6-10.9-2.5-15.2c-0.8,0-1.5,7.3-2.3,10.9c-1.5,7.1-3.7,8.3-4.4,8.3
	c-0.9-3.9-4.4-4.2-7.8-5.9c-1.2-0.6-2.3-1.1-3.6-1.2c-0.7-0.1-1.3,0.1-2,0.1c-0.7,0-1.3-0.2-2-0.1c-1.3,0.1-2.4,0.6-3.6,1.2
	c-3.4,1.6-6.9,2-7.8,5.9c-0.7,0-3-1.1-4.4-8.3c-0.8-3.6-1.5-10.9-2.3-10.9c-1.9,4.4-2.1,9.8-2.5,15.2c-0.9,23.5-5.9,36.3-5.9,47.2
	c0,26.1,11.7,35.3,28.5,35.3c16.8,0,28.5-9.2,28.5-35.3C111.8-78.5,106.8-91.2,105.9-114.8z M89.3-105c-2.8,1.2-5.4-0.7-5.9-0.7
	c0,0,0,0-0.1,0c0,0,0,0-0.1,0c-0.5,0-3.1,1.9-5.9,0.7c-0.8-3.6,2.4-4,5.9-3.9C86.9-109.1,90.1-108.6,89.3-105z"/>
<path class="st0" d="M181.2-130c0,0-0.1,0-0.1,0c-2.8,21.5-5.4,22.6-7,22.7c-1.4,0.1-3.6-1.8-4.9-2.5c-1.5-0.9-4.1-2.5-9.1-2.5
	c-5,0-7.6,1.7-9.1,2.5c-1.3,0.7-3.5,2.6-4.9,2.5c-1.6-0.1-4.1-1.2-7-22.7c0,0-0.1,0-0.1,0c-2.1,12.2-1.6,50.2,1.2,63.6
	c2.6,18.5,10.1,35.1,13.4,39.6c0.7,1,3.5,1.6,6.4,1.6c2.9,0,5.7-0.5,6.4-1.6c3.3-4.5,10.8-21.1,13.4-39.6
	C182.8-79.8,183.3-117.8,181.2-130z M160.2-101.8c-3.4,0-6.7,0.2-10.1,0.5c1.1-1.8,9-3.2,10.1-3.4c1.1,0.2,9,1.7,10.1,3.4
	C166.8-101.7,163.5-101.8,160.2-101.8z"/>
</svg>
