<?xml version="1.0" encoding="utf-8"?>
<!-- Generator: Adobe Illustrator 19.0.0, SVG Export Plug-In . SVG Version: 6.00 Build 0)  -->
<svg version="1.1" id="Layer_1" xmlns="http://www.w3.org/2000/svg" xmlns:xlink="http://www.w3.org/1999/xlink" x="0px" y="0px"
	 viewBox="-11.5 0 45 72" style="enable-background:new -11.5 0 45 72;" xml:space="preserve">
<style type="text/css">
	.st0{fill:#826550;}
</style>
<path class="st0" d="M21.8,27.2c0,0-0.1,0-0.1,0c-1,3.3-1.3,7.3-4,8.8c-0.5-1.4-1.8-2.1-3.2-2.7c-0.9-0.4-1.9-1.1-2.8-1.1
	c-0.2,0-0.4,0-0.6,0.1c-0.2-0.1-0.4-0.1-0.6-0.1c-0.9,0-1.9,0.7-2.8,1.1c-1.4,0.6-2.7,1.3-3.2,2.7c-2.8-1.5-3-5.6-4-8.8
	c0,0-0.1,0-0.1,0c-0.1,0.3-0.2,0.7-0.3,1c0,0.8,0.2,9.2,0.8,12.2c0.5,2.7,2.6,4.6,4.6,5.9c1.4,0.9,3.6,2.1,5.6,2.1
	c1.9,0,4.2-1.2,5.6-2.1c2-1.3,4.1-3.2,4.6-5.9c0.6-3,0.8-11.4,0.8-12.2C22,27.9,21.9,27.5,21.8,27.2z M15.8,39.2
	c-0.1,0.7-0.7,1.5-1.4,1.5c-1.3,0.1-1.9-1.9-3.4-1.9c-1.4,0-2.1,1.9-3.4,1.9c-0.7,0-1.3-0.8-1.4-1.5c-0.1-0.8,0.3-2,0.7-2.4
	c0.5-0.5,1.2-0.4,2-0.5c0.9-0.1,1.6-0.4,2.1-0.8c0,0,0,0,0,0c0.5,0.5,1.2,0.7,2.1,0.8c0.8,0.1,1.5,0.1,2,0.5
	C15.6,37.2,16,38.4,15.8,39.2z"/>
<path class="st0" d="M11,67.3c1.2,1.7,3.6,4.4,8.8,4.7c7.2,0.3,13.7-5.2,13.7-7.3c-2.8,2.5-7.4,2.7-9.9,1.7
	c-3.8-1.5-3.1-4.5-5.9-6.4c-1.6-1.1-3.8-1.2-5.7,0c-0.3,0.2-0.7,0.5-1,0.8c-0.3-0.3-0.7-0.6-1-0.8c-1.9-1.2-4.1-1.1-5.7,0
	c-2.8,2-2.1,4.9-5.9,6.4c-2.6,1-7.2,0.8-9.9-1.7c0,2.1,6.5,7.6,13.7,7.3C7.4,71.8,9.9,69,11,67.3L11,67.3z"/>
<g id="Page-1">
	<g id="Core" transform="translate(-127.000000, -128.000000)">
		<g id="content-cut" transform="translate(127.500000, 128.000000)">
			<path id="Shape" class="st0" d="M8,4c0-2.2-1.8-4-4-4C1.8,0,0,1.8,0,4c0,2.2,1.8,4,4,4c0.6,0,1.1-0.1,1.6-0.4L8,10l-2.4,2.4
				C5.1,12.1,4.6,12,4,12c-2.2,0-4,1.8-4,4s1.8,4,4,4c2.2,0,4-1.8,4-4c0-0.6-0.1-1.1-0.4-1.6L10,12l7,7h4L7.6,5.6C7.9,5.1,8,4.6,8,4
				L8,4z M4,6C2.9,6,2,5.1,2,4c0-1.1,0.9-2,2-2c1.1,0,2,0.9,2,2C6,5.1,5.1,6,4,6L4,6z M4,18c-1.1,0-2-0.9-2-2s0.9-2,2-2
				c1.1,0,2,0.9,2,2S5.1,18,4,18L4,18z M10,9.5c0.3,0,0.5,0.2,0.5,0.5s-0.2,0.5-0.5,0.5c-0.3,0-0.5-0.2-0.5-0.5S9.7,9.5,10,9.5
				L10,9.5z M21,1h-4l-6,6l2,2L21,1L21,1z"/>
		</g>
	</g>
</g>
</svg>
