<?xml version="1.0" encoding="utf-8"?>
<!-- Generator: Adobe Illustrator 19.0.0, SVG Export Plug-In . SVG Version: 6.00 Build 0)  -->
<svg version="1.1" id="Layer_1" xmlns="http://www.w3.org/2000/svg" xmlns:xlink="http://www.w3.org/1999/xlink" x="0px" y="0px"
	 viewBox="-471 255.9 16 90" style="enable-background:new -471 255.9 16 90;" xml:space="preserve">
<style type="text/css">
	.st0{fill:#FFFFFF;}
	.st1{fill:#826550;}
	.st2{fill-rule:evenodd;clip-rule:evenodd;}
</style>
<g id="XMLID_7_">
	<polygon id="XMLID_8_" class="st0" points="-464.4,255.9 -464.4,257.9 -456.9,257.9 -456.9,270 -464.4,270 -464.4,272 -454.9,272 
		-454.9,270.4 -454.9,270 -454.9,257.9 -454.9,257.4 -454.9,255.9 	"/>
	<polygon id="XMLID_9_" class="st0" points="-464.4,267.9 -460,263.9 -464.4,259.9 -464.4,262.9 -471,262.9 -471,264.8 
		-464.4,264.8 	"/>
</g>
<g id="XMLID_1_">
	<polygon id="XMLID_3_" points="-464.4,272.8 -464.4,274.8 -456.9,274.8 -456.9,286.9 -464.4,286.9 -464.4,288.9 -454.9,288.9 
		-454.9,287.3 -454.9,286.9 -454.9,274.8 -454.9,274.3 -454.9,272.8 	"/>
	<polygon id="XMLID_2_" points="-464.4,284.8 -460,280.8 -464.4,276.8 -464.4,279.8 -471,279.8 -471,281.7 -464.4,281.7 	"/>
</g>
<g id="XMLID_4_">
	<polygon id="XMLID_6_" class="st1" points="-464.4,289.8 -464.4,291.8 -456.9,291.8 -456.9,303.9 -464.4,303.9 -464.4,305.9 
		-454.9,305.9 -454.9,304.3 -454.9,303.9 -454.9,291.8 -454.9,291.3 -454.9,289.8 	"/>
	<polygon id="XMLID_5_" class="st1" points="-464.4,301.8 -460,297.8 -464.4,293.8 -464.4,296.8 -471,296.8 -471,298.7 
		-464.4,298.7 	"/>
</g>
<path id="XMLID_135_" class="st2" d="M-463.6,310.7c-0.5,0-0.4,0.2-0.7,0.3c-0.3,0,0.1-0.1-0.8,0c-0.8,0.2-1.1,1.2-1.2,1.6
	c0,0.4-0.1,1.5,0,2.1c0.1,0.4-0.2,0.4-0.2,0.4c-0.5,0-0.3,1.5-0.3,1.5c0.1,0.4,0,0.6,0.7,0.9c0.4,1,1.3,1.5,1.3,1.5s0,0.6,0,1.1
	c-0.1,0,0.3,1.2-2.1,1.5c-2.3,0.3-2.8,1.1-3.2,1.5c-0.4,0.4-0.4,2.4-0.4,2.4l15,0c0,0-0.1-2-0.5-2.4c-0.4-0.4-0.9-1.2-3.2-1.5
	c-2.3-0.3-1.9-1.5-1.9-1.6c0-0.2,0-0.9,0-0.9s0.8-0.6,1.1-1.6c0.6-0.3,0.8-0.4,0.9-0.8c0,0,0.2-1.6-0.4-1.6c0,0-0.3,0.1-0.2-0.3
	c0.1-0.4,0.1-1.5,0-1.9c0-0.4,0-1.5-0.8-1.7c-0.6-0.1-0.6,0-0.9,0c-0.3,0-0.6-0.8-1.1-0.8L-463.6,310.7z"/>
<g id="XMLID_10_">
	<g>
		<path class="st2" d="M-456.7,334.4l-0.8,0c0-3.2-2.6-5.5-5.6-5.5c-3,0-5.5,2.3-5.5,5.5h-0.6c0,0-1.3-0.3-1.3,1.1v9
			c0,0-0.4,1.4,1.1,1.4h12.6c0,0,1.2-0.1,1.2-1.4v-8.6C-455.5,335.9-455.4,334.4-456.7,334.4z M-462,343.9l-2.6,0
			c0,0,0.8-3.5,0.6-3.5c-0.8-0.3-1.3-1-1.3-1.9c0-1.1,0.9-2.1,2-2.1c1.1,0,2,0.9,2,2.1c0,0.9-0.5,1.6-1.3,1.9
			C-462.7,340.4-462,343.9-462,343.9z M-467.2,334.4c0-2.5,1.9-4.1,4.3-4.1c2.4,0,4.3,1.7,4.3,4.1H-467.2z"/>
	</g>
</g>
</svg>
